<svg width="24" height="24" viewBox="0 0 24 24" fill="none" xmlns="http://www.w3.org/2000/svg" class="icon-sm">
  <path fill-rule="evenodd" clip-rule="evenodd" d="M4.82918 4.10557C5.16796 3.428 5.86049 3 6.61803 3H17.382C18.1395 3 18.832 3.428 19.1708 4.10557L20.7889 7.34164C20.9277 7.61935 21 7.92558 21 8.23607V18C21 19.6569 19.6569 21 18 21H6C4.34315 21 3 19.6569 3 18V8.23607C3 7.92558 3.07229 7.61935 3.21115 7.34164L4.82918 4.10557ZM17.382 5H6.61803L5.61803 7H18.382L17.382 5ZM19 9H5V18C5 18.5523 5.44772 19 6 19H18C18.5523 19 19 18.5523 19 18V9ZM11.2929 10.7929C11.6834 10.4024 12.3166 10.4024 12.7071 10.7929L15.2071 13.2929C15.5976 13.6834 15.5976 14.3166 15.2071 14.7071C14.8166 15.0976 14.1834 15.0976 13.7929 14.7071L13 13.9142V16.5C13 17.0523 12.5523 17.5 12 17.5C11.4477 17.5 11 17.0523 11 16.5V13.9142L10.2071 14.7071C9.81658 15.0976 9.18342 15.0976 8.79289 14.7071C8.40237 14.3166 8.40237 13.6834 8.79289 13.2929L11.2929 10.7929Z" fill="currentColor"></path>
</svg></button></span><span data-state="closed"><button aria-label="Delete conversation" class="text-token-text-tertiary hover:text-token-text-secondary"><svg width="24" height="24" viewBox="0 0 24 24" fill="none" xmlns="http://www.w3.org/2000/svg" class="icon-sm">
      <path fill-rule="evenodd" clip-rule="evenodd" d="M10.5555 4C10.099 4 9.70052 4.30906 9.58693 4.75114L9.29382 5.8919H14.715L14.4219 4.75114C14.3083 4.30906 13.9098 4 13.4533 4H10.5555ZM16.7799 5.8919L16.3589 4.25342C16.0182 2.92719 14.8226 2 13.4533 2H10.5555C9.18616 2 7.99062 2.92719 7.64985 4.25342L7.22886 5.8919H4C3.44772 5.8919 3 6.33961 3 6.8919C3 7.44418 3.44772 7.8919 4 7.8919H4.10069L5.31544 19.3172C5.47763 20.8427 6.76455 22 8.29863 22H15.7014C17.2354 22 18.5224 20.8427 18.6846 19.3172L19.8993 7.8919H20C20.5523 7.8919 21 7.44418 21 6.8919C21 6.33961 20.5523 5.8919 20 5.8919H16.7799ZM17.888 7.8919H6.11196L7.30423 19.1057C7.3583 19.6142 7.78727 20 8.29863 20H15.7014C16.2127 20 16.6417 19.6142 16.6958 19.1057L17.888 7.8919ZM10 10C10.5523 10 11 10.4477 11 11V16C11 16.5523 10.5523 17 10 17C9.44772 17 9 16.5523 9 16V11C9 10.4477 9.44772 10 10 10ZM14 10C14.5523 10 15 10.4477 15 11V16C15 16.5523 14.5523 17 14 17C13.4477 17 13 16.5523 13 16V11C13 10.4477 13.4477 10 14 10Z" fill="currentColor"></path>
    </svg>