<svg xmlns="http://www.w3.org/2000/svg" viewBox="0 0 24 24" width="48px" height="48px">
  <path d="M19 12L19 19 15 19 15 9 17 9 17 12zM9 9L9 19 5 19 5 12 7 12 7 9z" opacity=".3" fill="#FFFFFF" />
  <path d="M6 3H10V5H6zM14 3H18V5H14zM17 9v1 2h2v7h-4v-5-2-2V9H17M9 9v1 2 2 5H5v-7h2v-2V9H9M18 7h-4c-.552 0-1 .448-1 1v2h-2V8c0-.552-.448-1-1-1H6C5.448 7 5 7.448 5 8v2c-1.105 0-2 .895-2 2v8c0 .552.448 1 1 1h6c.552 0 1-.448 1-1v-6h2v6c0 .552.448 1 1 1h6c.552 0 1-.448 1-1v-8c0-1.105-.895-2-2-2V8C19 7.448 18.552 7 18 7L18 7z" fill="#FFFFFF" />
</svg>