<svg xmlns="http://www.w3.org/2000/svg" viewBox="0 0 24 24" width="48px" height="48px">
  <path d="M19,20.6l-7-2.6l-7,2.6L5,4c0-0.5,0.4-1,1-1h12c0.6,0,1,0.4,1,1V20.6z" opacity=".3" fill="#FFFFFF" />
  <path d="M4,22L4,4c0-1.1,0.9-2,2-2h12c1.1,0,2,0.9,2,2v18l-8-3L4,22z M12,16.9l6,2.3V4H6l0,15.1L12,16.9z" fill="#FFFFFF" />
</svg>

<svg xmlns="http://www.w3.org/2000/svg" viewBox="0 0 24 24" width="48px" height="48px">
  <path d="M15,3v7.2l-2-1.4l-2,1.4V3H7C5.9,3,5,3.9,5,5v12h14V3H15z" opacity=".3" fill="#FFFFFF" />
  <path d="M20,22H7c-1.7,0-3-1.3-3-3s1.3-3,3-3h13v2H7c-0.6,0-1,0.4-1,1s0.4,1,1,1h13V22z" fill="#FFFFFF" />
  <path d="M6,19H4V5c0-1.7,1.3-3,3-3h13v15h-2V4H7C6.4,4,6,4.4,6,5V19z" fill="#FFFFFF" />
  <path d="M16,12.1L13,10l-3,2.1V2h6V12.1z M13,7.6l1,0.7V4h-2v4.3L13,7.6z" fill="#FFFFFF" />
</svg>

<svg xmlns="http://www.w3.org/2000/svg" viewBox="0 0 24 24" width="48px" height="48px">
  <path d="M12 3A9 9 0 1 0 12 21A9 9 0 1 0 12 3Z" opacity=".3" fill="#FFFFFF" />
  <path d="M12,22C6.5,22,2,17.5,2,12C2,6.5,6.5,2,12,2c5.5,0,10,4.5,10,10C22,17.5,17.5,22,12,22z M12,4c-4.4,0-8,3.6-8,8 c0,4.4,3.6,8,8,8c4.4,0,8-3.6,8-8C20,7.6,16.4,4,12,4z" fill="#FFFFFF" />
  <path d="M10 17.4L6.3 13.7 7.7 12.3 10 14.6 16.3 8.3 17.7 9.7z" fill="#FFFFFF" />
</svg>

<svg xmlns="http://www.w3.org/2000/svg" viewBox="0 0 24 24" width="48px" height="48px">
  <path d="M12 3A9 9 0 1 0 12 21A9 9 0 1 0 12 3Z" opacity=".3" fill="#FFFFFF" />
  <path d="M12,22C6.5,22,2,17.5,2,12C2,6.5,6.5,2,12,2c5.5,0,10,4.5,10,10C22,17.5,17.5,22,12,22z M12,4c-4.4,0-8,3.6-8,8 c0,4.4,3.6,8,8,8c4.4,0,8-3.6,8-8C20,7.6,16.4,4,12,4z" fill="#FFFFFF" />
  <path d="M10 17.4L6.3 13.7 7.7 12.3 10 14.6 16.3 8.3 17.7 9.7z" fill="#FFFFFF" />
</svg>

<svg xmlns="http://www.w3.org/2000/svg" viewBox="0 0 24 24" width="48px" height="48px">
  <path d="M5 15c-1.7 0-3-1.3-3-3 0-1.7 1.3-3 3-3 1.7 0 3 1.3 3 3C8 13.7 6.7 15 5 15zM5 11c-.6 0-1 .4-1 1 0 .6.4 1 1 1 .6 0 1-.4 1-1C6 11.4 5.6 11 5 11zM19 21c-1.7 0-3-1.3-3-3 0-1.7 1.3-3 3-3 1.7 0 3 1.3 3 3C22 19.7 20.7 21 19 21zM19 17c-.6 0-1 .4-1 1 0 .6.4 1 1 1 .6 0 1-.4 1-1C20 17.4 19.6 17 19 17zM19 9c-1.7 0-3-1.3-3-3 0-1.7 1.3-3 3-3 1.7 0 3 1.3 3 3C22 7.7 20.7 9 19 9zM19 5c-.6 0-1 .4-1 1 0 .6.4 1 1 1 .6 0 1-.4 1-1C20 5.4 19.6 5 19 5z" fill="#FFFFFF" />
  <path d="M5 10A2 2 0 1 0 5 14 2 2 0 1 0 5 10zM19 16A2 2 0 1 0 19 20 2 2 0 1 0 19 16zM19 4A2 2 0 1 0 19 8 2 2 0 1 0 19 4z" opacity=".3" fill="#FFFFFF" />
  <path d="M13.4 13L7 13 7 11 12.6 11 17.3 6.5 18.7 7.9z" fill="#FFFFFF" />
  <path d="M14.5 10.9H16.5V17.8H14.5z" transform="rotate(-46.167 15.5 14.399)" fill="#FFFFFF" />
</svg>