<svg xmlns="http://www.w3.org/2000/svg" viewBox="0 0 24 24" width="48px" height="48px">
  <path d="M18,3H6C5.448,3,5,3.448,5,4v16c0,0.552,0.448,1,1,1h12c0.552,0,1-0.448,1-1V4C19,3.448,18.552,3,18,3z M12,7c1.105,0,2,0.895,2,2c0,1.105-0.895,2-2,2s-2-0.895-2-2C10,7.895,10.895,7,12,7z M8,17c0-1.657,1.343-3,3-3h2c1.657,0,3,1.343,3,3H8z" opacity=".3" fill="#FFFFFF" />
  <path d="M12 12c1.682 0 3-1.317 3-3s-1.318-3-3-3S9 7.317 9 9 10.318 12 12 12zM12 8c.58 0 1 .421 1 1s-.42 1-1 1-1-.421-1-1S11.42 8 12 8zM12 13c-2.851 0-5 1.455-5 3.384V18h10v-1.616C17 14.455 14.851 13 12 13zM9.146 16c.363-.496 1.384-1 2.854-1s2.49.504 2.854 1H9.146z" fill="#FFFFFF" />
  <path d="M4,20V4c0-1.103,0.897-2,2-2h12c1.103,0,2,0.897,2,2v16c0,1.103-0.897,2-2,2H6C4.897,22,4,21.103,4,20z M18,4H6v16.001L18,20V4z" fill="#FFFFFF" />
</svg>