<svg xmlns="http://www.w3.org/2000/svg" viewBox="0 0 24 24" width="48px" height="48px">
  <path d="M19,20H5c-0.6,0-1-0.4-1-1V5c0-0.6,0.4-1,1-1h14c0.6,0,1,0.4,1,1v14 C20,19.6,19.6,20,19,20z" opacity=".3" fill="#FFFFFF" />
  <path d="M19,21H5c-1.1,0-2-0.9-2-2V5c0-1.1,0.9-2,2-2h14c1.1,0,2,0.9,2,2v14C21,20.1,20.1,21,19,21z M19,19v1V19L19,19z M5,5v14h14 V5H5z" fill="#FFFFFF" />
  <path d="M7 15H17V17H7zM14 7H17V9H14zM12 11H17V13H12zM10.6 7C9.9 7 9.5 7.5 9.5 7.5S9.1 7 8.4 7C8 7 7.6 7.2 7.3 7.6c-1 1.3.9 2.8 1.3 3.2.3.2.6.5.8.7.1.1.2.1.3 0 .2-.2.5-.5.8-.7.4-.4 2.3-1.9 1.3-3.2C11.4 7.2 11 7 10.6 7z" fill="#FFFFFF" />
</svg>