<svg xmlns="http://www.w3.org/2000/svg" viewBox="0 0 24 24" width="48px" height="48px">
  <path d="M11 21H4c-.553 0-1-.448-1-1V4c0-.552.447-1 1-1h7c.553 0 1 .448 1 1v16C12 20.552 11.553 21 11 21zM5 19h5V5H5V19zM16.5 12C14.019 12 12 9.981 12 7.5S14.019 3 16.5 3 21 5.019 21 7.5 18.981 12 16.5 12zM16.5 5C15.121 5 14 6.122 14 7.5s1.121 2.5 2.5 2.5S19 8.878 19 7.5 17.879 5 16.5 5zM16.5 21c-2.481 0-4.5-2.019-4.5-4.5s2.019-4.5 4.5-4.5 4.5 2.019 4.5 4.5S18.981 21 16.5 21zM16.5 14c-1.379 0-2.5 1.122-2.5 2.5s1.121 2.5 2.5 2.5 2.5-1.122 2.5-2.5S17.879 14 16.5 14z" fill="#FFFFFF" />
  <path d="M4 4H11V20H4zM16.5 4A3.5 3.5 0 1 0 16.5 11 3.5 3.5 0 1 0 16.5 4zM16.5 13A3.5 3.5 0 1 0 16.5 20 3.5 3.5 0 1 0 16.5 13z" opacity=".3" fill="#FFFFFF" />
</svg>