<svg xmlns="http://www.w3.org/2000/svg" viewBox="0 0 24 24" width="48px" height="48px">
  <path d="M18,12c0-3.3-2.7-6-6-6s-6,2.7-6,6c0,2.6,1.7,4.8,4,5.7V21c0,0.6,0.4,1,1,1h2c0.6,0,1-0.4,1-1v-3.3 C16.3,16.8,18,14.6,18,12z" opacity=".3" fill="#FFFFFF" />
  <path d="M21 11H24V13H21zM0 11H3V13H0zM11 0H13V3H11z" fill="#FFFFFF" />
  <path d="M18.4 17.9H20.4V20.9H18.4z" transform="rotate(-45.001 19.423 19.424)" fill="#FFFFFF" />
  <path d="M3.6 3.1H5.6V6.1H3.6z" transform="rotate(-45.001 4.575 4.575)" fill="#FFFFFF" />
  <path d="M17.9 3.6H20.9V5.6H17.9z" transform="rotate(-45.009 19.424 4.575)" fill="#FFFFFF" />
  <path d="M3.1 18.4H6.1V20.4H3.1z" transform="rotate(-44.992 4.574 19.423)" fill="#FFFFFF" />
  <path d="M13 23h-2c-1.1 0-2-.9-2-2v-2.7c-2.4-1.1-4-3.6-4-6.3 0-3.9 3.1-7 7-7 3.9 0 7 3.1 7 7 0 2.7-1.6 5.2-4 6.3V21C15 22.1 14.1 23 13 23zM12 7c-2.8 0-5 2.2-5 5 0 2.1 1.3 4 3.3 4.7l.7.2V21h2v-4.1l.7-.2c2-.7 3.3-2.6 3.3-4.7C17 9.2 14.8 7 12 7zM0 11H3V13H0z" fill="#FFFFFF" />
</svg>