<svg xmlns="http://www.w3.org/2000/svg" viewBox="0 0 24 24" width="48px" height="48px">
  <path d="M7,5C4.8,5,3,6.8,3,9v9c0,0.6,0.4,1,1,1h16c0.6,0,1-0.4,1-1V9c0-2.2-1.8-4-4-4H7z" opacity=".3" fill="#FFFFFF" />
  <path d="M20,20H4c-1.1,0-2-0.9-2-2V9c0-2.8,2.2-5,5-5h10c2.8,0,5,2.2,5,5v9C22,19.1,21.1,20,20,20z M7,6C5.3,6,4,7.3,4,9v9h16V9 c0-1.7-1.3-3-3-3H7z" fill="#FFFFFF" />
  <path d="M12,19h-2V9c0-1.7-1.3-3-3-3V4c2.8,0,5,2.2,5,5V19z" fill="#FFFFFF" />
  <path d="M6 9H8V11H6zM18 13L16 13 16 11 11 11 11 9 18 9z" fill="#FFFFFF" />
</svg>