<!-- Generator: Adobe Illustrator 25.2.1, SVG Export Plug-In . SVG Version: 6.00 Build 0)  -->
<svg version="1.1" id="Layer_1" xmlns="http://www.w3.org/2000/svg" xmlns:xlink="http://www.w3.org/1999/xlink" x="0px" y="0px" viewBox="0 0 24 24" style="enable-background:new 0 0 24 24" xml:space="preserve" width="48px" height="48px">
<style type="text/css" fill="#FFFFFF">
	.st0{opacity:0.25;}
</style>
<rect x="3.3" y="4.2" class="st0" width="13.5" height="15.4" fill="#FFFFFF" />
<path d="M20,7v11c0,0.6-0.4,1-1,1s-1-0.4-1-1V3H2v15c0,1.7,1.3,3,3,3h14c1.7,0,3-1.3,3-3V7H20z M5,19c-0.6,0-1-0.4-1-1V5h12v13  c0,0.4,0.1,0.7,0.2,1H5z" fill="#FFFFFF" />
<path d="M6,16h8v2H6V16z M6,12h8v2H6V12z M6,7h8v3H6V7z" fill="#FFFFFF" />
</svg>