<svg xmlns="http://www.w3.org/2000/svg" viewBox="0 0 24 24" width="48px" height="48px">
  <path d="M9.5 5.5C10.3 5.2 11.1 5 12 5c3.9 0 7 3.1 7 7 0 .9-.2 1.7-.5 2.5L20 16c.6-1.2 1-2.6 1-4 0-5-4-9-9-9-1.2 0-2.4.3-3.5.7L9.5 5.5zM14.5 18.5C13.7 18.8 12.9 19 12 19c-3.9 0-7-3.1-7-7 0-.9.2-1.7.5-2.5L4 8c-.6 1.2-1 2.6-1 4 0 5 4 9 9 9 1.3 0 2.5-.3 3.6-.8L14.5 18.5z" fill="#FFFFFF" />
  <path d="M16 20L12 24 12 16zM8 4L12 0 12 8z" fill="#FFFFFF" />
  <path d="M11 -0.7H13V24.8H11z" transform="rotate(-45.001 12 12)" fill="#FFFFFF" />
</svg>