<svg xmlns="http://www.w3.org/2000/svg" viewBox="0 0 24 24" width="48px" height="48px">
  <path fill="none" stroke="#FFFFFF" stroke-miterlimit="10" stroke-width="2" d="M14.071,21H2.929C2.416,21,2,20.552,2,20V10 c0-0.552,0.416-1,0.929-1h11.143C14.584,9,15,9.448,15,10v10C15,20.552,14.584,21,14.071,21z" />
  <path d="M14.071,21H2.929C2.416,21,2,20.552,2,20V10c0-0.552,0.416-1,0.929-1h11.143C14.584,9,15,9.448,15,10 v10C15,20.552,14.584,21,14.071,21z" opacity=".3" fill="#FFFFFF" />
  <path d="M10.508,15c0,1.1-0.9,2-2,2s-2-0.9-2-2s0.9-2,2-2S10.508,13.9,10.508,15z" fill="#FFFFFF" />
  <path fill="none" stroke="#FFFFFF" stroke-miterlimit="10" stroke-width="2" d="M23,9c0,0,0-1.6,0-2c0-2.8-2.2-5-5-5s-5,2.2-5,5 c0,0.4,0,2,0,2" />
</svg>