<svg xmlns="http://www.w3.org/2000/svg" viewBox="0 0 24 24" width="48px" height="48px">
  <path d="M22 8h-5V6h3V5c0-.6-.4-1-1-1h-2V2h2c1.7 0 3 1.3 3 3V8zM14 22H5c-1.7 0-3-1.3-3-3v-3h11v2H4v1c0 .6.4 1 1 1h9V22z" fill="#FFFFFF" />
  <path d="M15 22c-1.6 0-3-1.3-3-3l0-3 2 0 0 3c0 .5.5 1 1 1 0 0 0 0 0 0L15 22C15 22 15 22 15 22zM7 17H5V5c0-1.7 1.3-3 3-3h11v2H8C7.4 4 7 4.4 7 5V17z" fill="#FFFFFF" />
  <path d="M15,22h-1v-2h1c0.6,0,1-0.4,1-1V5c0-1.7,1.3-3,3-3v2c-0.6,0-1,0.4-1,1v14C18,20.7,16.7,22,15,22z" fill="#FFFFFF" />
  <path d="M6,3v14h7v2c0,1.1,0.9,2,2,2l0,0c1.1,0,2-0.9,2-2V3H6z" opacity=".3" fill="#FFFFFF" />
</svg>