<svg xmlns="http://www.w3.org/2000/svg" viewBox="0 0 24 24" width="48px" height="48px">
  <path d="M20,11c0-4.4-3.6-8-8-8s-8,3.6-8,8s3.6,8,8,8c0.3,0,0.7,0,1-0.1v2.3c2.1-1.4,6-4.4,6.8-8.6C19.9,12.1,20,11.6,20,11z" opacity=".3" fill="#FFFFFF" />
  <path d="M12,23.1V20c-5,0-9-4-9-9c0-5,4-9,9-9c5,0,9,4,9,9c0,0.6-0.1,1.3-0.2,1.9c-0.9,4.5-4.9,7.7-7.3,9.2L12,23.1z M14,17.8v1.5 c2-1.5,4.2-3.9,4.8-6.8c0.1-0.5,0.2-1,0.2-1.5c0-3.9-3.1-7-7-7c-3.9,0-7,3.1-7,7s3.1,7,7,7c0.3,0,0.6,0,0.9-0.1L14,17.8z" fill="#FFFFFF" />
</svg>