<svg xmlns="http://www.w3.org/2000/svg" viewBox="0 0 24 24" width="48px" height="48px">
  <path fill="#FFFFFF" d="M19.7,7.3L18,9h-3V6l1.7-1.7C16.2,4.1,15.6,4,15,4c-2.8,0-5,2.3-5,5.1c0,0.6,0.1,1.1,0.3,1.6 l-6.6,6.5c-0.9,0.9-0.9,2.3,0,3.2s2.3,0.9,3.2,0l6.6-6.5c0.5,0.2,1,0.2,1.6,0.2c2.8,0,5-2.2,5-4.9C20,8.5,19.9,7.9,19.7,7.3z" />
  <path d="M5.2,22c-0.9,0-1.7-0.3-2.3-1c-1.3-1.3-1.3-3.3,0-4.6l6.2-6.1C9.1,9.9,9,9.5,9,9.1C9,5.7,11.7,3,15,3c0.7,0,1.4,0.1,2,0.4 l1.5,0.5L16,6.4V8h1.6l2.5-2.5L20.6,7C20.9,7.7,21,8.4,21,9.1c0,3.3-2.6,5.9-6,5.9c-0.4,0-0.8,0-1.3-0.1l-6.2,6.1 C6.9,21.7,6.1,22,5.2,22z M14.6,5c-2,0.2-3.6,1.9-3.6,4c0,0.4,0.1,0.8,0.2,1.3l0.2,0.6l-7.1,6.9c-0.5,0.5-0.5,1.3,0,1.8 c0.5,0.5,1.3,0.5,1.7,0l7.1-6.9l0.6,0.2C14.1,13,14.5,13,15,13c2.1,0,3.8-1.5,4-3.6L18.4,10H14V5.6L14.6,5z" fill="#FFFFFF" />
  <path d="M19.7,7.3L18,9h-3V6l1.7-1.7C16.2,4.1,15.6,4,15,4c-2.8,0-5,2.3-5,5.1 c0,0.6,0.1,1.1,0.3,1.6l-6.6,6.5c-0.9,0.9-0.9,2.3,0,3.2s2.3,0.9,3.2,0l6.6-6.5c0.5,0.2,1,0.2,1.6,0.2c2.8,0,5-2.2,5-4.9 C20,8.5,19.9,7.9,19.7,7.3z" opacity=".3" fill="#FFFFFF" />
</svg>